<svg height="800" width="800" color="green" fill="currentColor" xmlns="http://www.w3.org/2000/svg" viewBox="0 0 490 490" xml:space="preserve"><path fill="currentColor" d="M245 0C109.69 0 0 109.69 0 245s109.69 245 245 245 245-109.69 245-245S380.31 0 245 0zm0 459.375c-118.206 0-214.375-96.168-214.375-214.375 0-118.206 96.169-214.375 214.375-214.375S459.375 126.794 459.375 245c0 118.207-96.169 214.375-214.375 214.375z"/><path fill="currentColor" d="m95.583 258.914 108.384 47.119v-30.505l-75.605-29.982 75.605-28.905v-30.73L95.583 232.82zM213.986 326.744h22.326l39.582-163.488h-22.759zM285.928 216.431l75.71 29.429-75.71 29.773v30.52l108.488-47.239V233.03l-108.488-46.91z"/></svg>